<?xml version="1.0" encoding="UTF-8"?>
<svg version="1.1" xmlns="http://www.w3.org/2000/svg" width="225" height="225">
<path d="M0 0 C74.25 0 148.5 0 225 0 C225 74.25 225 148.5 225 225 C150.75 225 76.5 225 0 225 C0 150.75 0 76.5 0 0 Z " fill="#FDFEFE" transform="translate(0,0)"/>
<path d="M0 0 C1.15822266 1.03640625 1.15822266 1.03640625 2.33984375 2.09375 C5.8179761 3.89020286 7.80389236 3.46547852 11.5847168 2.87207031 C21.70933598 1.3517314 34.40647012 0.44799986 43.31640625 6.0703125 C47.73789313 9.69059035 50.65801817 13.78675017 51.50390625 19.4609375 C51.84953518 29.20544356 49.42120492 36.47696703 44.0625 44.5 C42.60726453 45.81856988 41.12897419 47.11230509 39.625 48.375 C35.59811249 52.50947611 35.70324941 56.13818945 35.77124023 61.62158203 C35.84097785 63.72421206 35.91344956 65.82675302 35.98852539 67.92919922 C36.58414799 88.3856474 29.57132556 108.06134222 16.0625 123.5 C15.54429687 124.16 15.02609375 124.82 14.4921875 125.5 C4.38001065 138.00588055 -12.26505066 147.73748057 -27.9375 151.5 C-28.77539062 151.70238281 -29.61328125 151.90476563 -30.4765625 152.11328125 C-51.42531957 156.35497173 -72.29604033 152.8604715 -90.9375 142.5 C-92.67353175 141.20293628 -94.38564876 139.87271646 -96.0625 138.5 C-102.07221057 133.98013393 -107.86688039 135.55366027 -114.9375 136.5 C-124.65603392 137.06387398 -133.95510434 136.98704122 -141.875 130.6875 C-146.65843305 126.03944713 -148.13550123 122.02314066 -148.5 115.375 C-148.2998412 108.03584404 -146.04941447 102.53911478 -141.9375 96.5 C-141.14472656 95.75878906 -140.35195312 95.01757812 -139.53515625 94.25390625 C-135.63448061 90.5997188 -133.2296199 87.99088553 -132.60205078 82.63964844 C-132.46231533 77.98040961 -132.59066818 73.34944688 -132.74487305 68.69189453 C-133.37593525 49.03343243 -126.44912233 30.67366963 -113.9375 15.5 C-113.32261719 14.72269531 -112.70773438 13.94539063 -112.07421875 13.14453125 C-85.60953756 -18.6897954 -32.87745291 -26.11930981 0 0 Z " fill="#0A2349" transform="translate(160.9375,43.5)"/>
<path d="M0 0 C0.5775 0.4429541 1.155 0.8859082 1.75 1.34228516 C10.00960001 8.00157311 10.00960001 8.00157311 20.23046875 9.28369141 C22.0496523 8.87280113 23.84246328 8.34778924 25.625 7.79931641 C31.28430565 6.29016823 39.96920198 5.09641739 45.375 7.79931641 C45.91405626 12.11176645 45.79360314 14.77130344 43.25 18.36181641 C21.43356311 44.70427401 -9.10428135 62.38786426 -38.67822266 78.72167969 C-39.9380116 79.41903464 -41.1956569 80.1202823 -42.45068359 80.82617188 C-58.04223591 89.59080581 -74.50941756 96.60969272 -91.625 101.79931641 C-92.59566406 102.11771484 -93.56632812 102.43611328 -94.56640625 102.76416016 C-101.19224596 104.80940513 -107.69886745 105.62232907 -114.625 104.79931641 C-115.615 104.13931641 -116.605 103.47931641 -117.625 102.79931641 C-117.625 95.30809153 -113.39155528 91.2269268 -108.625 85.79931641 C-102.56468885 78.83051341 -102.56468885 78.83051341 -101.66796875 69.84228516 C-101.69040417 68.40414864 -101.71185426 66.96599648 -101.73242188 65.52783203 C-101.76910612 63.2745446 -101.81155674 61.02207397 -101.87182617 58.76928711 C-102.33071348 40.75645722 -97.5770278 25.56960401 -85.625 11.79931641 C-84.97917969 11.04650391 -84.33335938 10.29369141 -83.66796875 9.51806641 C-63.23039018 -12.62580351 -24.82969749 -18.34622179 0 0 Z " fill="#FCFDFD" transform="translate(148.625,57.20068359375)"/>
<path d="M0 0 C0.96873945 14.04672208 -4.61081446 27.79518259 -13.171875 38.7890625 C-15.36595649 41.29334172 -17.62758712 43.66472054 -20 46 C-20.64839844 46.64710938 -21.29679687 47.29421875 -21.96484375 47.9609375 C-36.60246976 61.67061585 -54.31350308 64.69009504 -73.53808594 64.140625 C-81.62117854 63.67891721 -88.80443598 60.50006447 -96 57 C-96 56.34 -96 55.68 -96 55 C-94.84628906 54.50113281 -93.69257812 54.00226563 -92.50390625 53.48828125 C-60.88337602 39.64049928 -29.42282696 22.95549737 -2.50390625 1.14453125 C-1 0 -1 0 0 0 Z " fill="#FAFBFC" transform="translate(178,114)"/>
<path d="M0 0 C1.98 0 3.96 0 6 0 C4.19587357 3.26460973 3.16605307 4.88929795 0 7 C0 4.69 0 2.38 0 0 Z " fill="#051840" transform="translate(178,115)"/>
<path d="M0 0 C1.11375 0.3403125 1.11375 0.3403125 2.25 0.6875 C0.5625 2.25 0.5625 2.25 -1.75 3.6875 C-4.5 3.375 -4.5 3.375 -6.75 2.6875 C-4.29511132 0.41445492 -3.41240272 -0.38777304 0 0 Z " fill="#0C1D3C" transform="translate(85.75,33.3125)"/>
<path d="M0 0 C0.33 0.66 0.66 1.32 1 2 C-0.28813342 2.83878455 -1.58063256 3.67086783 -2.875 4.5 C-3.59429687 4.9640625 -4.31359375 5.428125 -5.0546875 5.90625 C-7 7 -7 7 -9 7 C-8 4 -8 4 -6.15234375 2.83203125 C-5.42144531 2.49558594 -4.69054687 2.15914062 -3.9375 1.8125 C-3.20402344 1.46832031 -2.47054687 1.12414062 -1.71484375 0.76953125 C-1.14894531 0.51558594 -0.58304688 0.26164063 0 0 Z " fill="#0B1A39" transform="translate(116,132)"/>
<path d="M0 0 C0.99 1.32 1.98 2.64 3 4 C-0.75 6 -0.75 6 -3 6 C-2.42655063 3.13275314 -2.1385485 2.1385485 0 0 Z " fill="#061A3D" transform="translate(50,56)"/>
</svg>
